<svg width="42" height="28" viewBox="0 0 42 28" fill="none" xmlns="http://www.w3.org/2000/svg">
<path d="M0.881058 18.3762C0.881058 16.1494 1.57815 14.1743 2.97234 12.4315C4.36653 10.6888 6.12864 9.5657 8.27801 9.0816C8.87829 6.42877 10.2531 4.26003 12.3638 2.55602C14.4744 0.852006 16.9143 0 19.6445 0C22.3167 0 24.6985 0.832642 26.7898 2.47856C28.8811 4.12448 30.2365 6.2545 30.8562 8.84924H31.4952C33.2379 8.84924 34.8451 9.27524 36.3167 10.1079C37.7884 10.9405 38.9696 12.1024 39.8216 13.574C40.6736 15.0456 41.1189 16.6335 41.1189 18.3762C41.1189 20.0802 40.7123 21.668 39.899 23.1203C39.0858 24.5726 37.9627 25.7344 36.5491 26.6058C35.1356 27.4772 33.5671 27.9419 31.8824 28H10.1757C7.58092 27.8838 5.39281 26.8963 3.59198 25.0373C1.79115 23.1978 0.881058 20.971 0.881058 18.3762ZM4.19226 18.3762C4.19226 20.0609 4.77317 21.5131 5.935 22.7524C7.09682 23.9917 8.51038 24.6501 10.1757 24.7469H31.8437C33.509 24.6694 34.9226 23.9917 36.0844 22.7524C37.2656 21.5131 37.8465 20.0415 37.8465 18.3762C37.8465 16.6722 37.2075 15.2199 35.9488 13.9806C34.6902 12.7414 33.1992 12.1217 31.4564 12.1217H28.3582C28.1452 12.1217 28.029 12.0055 28.029 11.7732L27.8935 10.6694C27.6805 8.57815 26.7704 6.81604 25.1826 5.40249C23.5947 3.98894 21.7552 3.27248 19.6445 3.27248C17.5339 3.27248 15.675 3.98894 14.1259 5.40249C12.5574 6.81604 11.6667 8.57815 11.473 10.6694L11.3181 11.7732C11.3181 12.0055 11.1826 12.1217 10.9309 12.1217H9.90457C8.27802 12.3154 6.92255 13.0124 5.83818 14.1936C4.75381 15.3748 4.19226 16.769 4.19226 18.3762Z" fill="white"/>
</svg>
