<svg width="23" height="28" viewBox="0 0 23 28" fill="none" xmlns="http://www.w3.org/2000/svg">
<path d="M0.820862 17.1688C0.820862 15.8808 1.17214 14.4025 1.8747 12.7339C2.57726 11.0653 3.48474 9.44067 4.59713 7.88918C6.88045 4.87402 8.87104 2.59069 10.5396 1.05384L11.6374 0C12.0033 0.380554 12.4131 0.731834 12.8522 1.05384C13.4523 1.66858 14.3744 2.67852 15.6039 4.11291C16.8334 5.54731 17.9019 6.8207 18.7801 7.99164C19.8193 9.46994 20.7121 11.0653 21.4293 12.7486C22.1465 14.4318 22.5124 15.9101 22.5124 17.1835C22.5124 18.6472 22.2343 20.0376 21.6635 21.3696C21.0927 22.7015 20.3316 23.8578 19.3656 24.8238C18.3995 25.7899 17.2432 26.5656 15.8967 27.1364C14.5501 27.7073 13.1303 28 11.6374 28C10.1737 28 8.78322 27.7219 7.45129 27.1657C6.11935 26.6095 4.96305 25.863 3.99702 24.897C3.031 23.9456 2.25526 22.7893 1.68443 21.4574C1.1136 20.1255 0.820862 18.6911 0.820862 17.1688ZM4.12875 12.8803C4.12875 14.0951 4.37758 15.0612 4.88986 15.793C5.40215 16.5102 6.17789 16.8761 7.2171 16.8761C8.27094 16.8761 9.04668 16.5102 9.57361 15.793C10.0859 15.0758 10.3494 14.1098 10.364 12.8803C10.3494 11.6508 10.0859 10.6848 9.57361 9.95295C9.06132 9.23576 8.27094 8.86984 7.2171 8.86984C6.17789 8.86984 5.40215 9.23576 4.88986 9.95295C4.37758 10.6848 4.12875 11.6508 4.12875 12.8803ZM6.42672 12.8803C6.42672 12.6607 6.42672 12.4851 6.42672 12.368C6.42672 12.2509 6.44135 12.0899 6.45599 11.885C6.47063 11.6801 6.48526 11.5191 6.52917 11.4166C6.57308 11.3142 6.60236 11.1824 6.6609 11.0653C6.71945 10.9482 6.79263 10.8458 6.88045 10.8019C6.98291 10.7433 7.08537 10.7141 7.2171 10.7141C7.42201 10.7141 7.58302 10.7726 7.70011 10.8897C7.8172 11.0068 7.90502 11.1971 7.94893 11.4459C7.99284 11.7094 8.02212 11.9143 8.03675 12.1045C8.05139 12.2948 8.05139 12.5436 8.05139 12.8657C8.05139 13.2023 8.05139 13.4511 8.03675 13.6268C8.02212 13.8024 7.99284 14.022 7.94893 14.2854C7.90502 14.5342 7.8172 14.7245 7.70011 14.8416C7.58302 14.9587 7.42201 15.0172 7.2171 15.0172C7.08537 15.0172 6.98291 14.988 6.88045 14.9294C6.778 14.8709 6.70481 14.7831 6.6609 14.666C6.60236 14.5489 6.55845 14.4171 6.52917 14.3147C6.4999 14.1976 6.47063 14.0366 6.45599 13.8463C6.44135 13.6414 6.42672 13.4804 6.42672 13.3779C6.42672 13.2755 6.42672 13.0998 6.42672 12.8803ZM7.29028 24.2237H9.22233L16.526 8.50392H14.5501L7.29028 24.2237ZM13.5841 19.8474C13.5987 21.0768 13.8768 22.0429 14.3891 22.7747C14.9014 23.4919 15.6917 23.8578 16.731 23.8578C17.7848 23.8578 18.5605 23.4919 19.0728 22.7747C19.5851 22.0575 19.8339 21.0768 19.8486 19.8474C19.8339 18.6179 19.5851 17.6519 19.0728 16.9347C18.5605 16.2175 17.7848 15.8515 16.731 15.8515C15.6917 15.8515 14.9014 16.2175 14.3891 16.9347C13.8622 17.6519 13.5987 18.6179 13.5841 19.8474ZM15.882 19.8474C15.882 19.5107 15.882 19.2619 15.8967 19.0863C15.9113 18.9106 15.9406 18.6911 15.9845 18.4276C16.0284 18.1641 16.1162 17.9885 16.2333 17.8714C16.3504 17.7543 16.5114 17.6958 16.7163 17.6958C16.848 17.6958 16.9651 17.725 17.0676 17.7836C17.1701 17.8421 17.2432 17.93 17.3018 18.0617C17.3603 18.1934 17.4042 18.3105 17.4481 18.413C17.4921 18.5154 17.5067 18.6764 17.5213 18.8813L17.536 19.3497V19.8474V20.3596L17.5213 20.828L17.4481 21.2964L17.3018 21.6477L17.0676 21.9258L16.7163 22.0136C16.5114 22.0136 16.3504 21.955 16.2333 21.8379C16.1162 21.7209 16.0284 21.5306 15.9845 21.2818C15.9406 21.0183 15.9113 20.7987 15.8967 20.6231C15.882 20.4475 15.882 20.184 15.882 19.8474Z" fill="white"/>
</svg>
