<svg width="158" height="62" viewBox="0 0 158 62" fill="none" xmlns="http://www.w3.org/2000/svg">
<path d="M35.5261 24.26L36.3061 38H34.9961L34.4861 30.43C34.4594 29.97 34.4328 29.48 34.4061 28.96C34.3861 28.44 34.3694 27.94 34.3561 27.46C34.3428 26.9733 34.3294 26.5533 34.3161 26.2C34.3094 25.8467 34.3028 25.61 34.2961 25.49L31.7461 35.5H30.2261L27.4961 25.49C27.4961 25.61 27.4928 25.8567 27.4861 26.23C27.4861 26.6033 27.4861 27.04 27.4861 27.54C27.4861 28.0333 27.4794 28.5367 27.4661 29.05C27.4528 29.5567 27.4361 30.0067 27.4161 30.4L26.9661 38H25.6861L26.4661 24.26H28.5961L31.0361 33.83L33.3661 24.26H35.5261ZM46.3473 35.93C46.3473 36.3567 46.4207 36.67 46.5673 36.87C46.714 37.0633 46.9407 37.2067 47.2473 37.3L46.9073 38.21C46.5073 38.15 46.1507 38.0033 45.8373 37.77C45.524 37.5367 45.304 37.18 45.1773 36.7C44.8107 37.1867 44.3507 37.56 43.7973 37.82C43.2507 38.0733 42.6307 38.2 41.9373 38.2C40.8973 38.2 40.0807 37.9067 39.4873 37.32C38.894 36.7333 38.5973 35.95 38.5973 34.97C38.5973 33.9033 39.0107 33.0867 39.8373 32.52C40.6707 31.9533 41.8807 31.67 43.4673 31.67H45.0573V30.65C45.0573 29.83 44.8207 29.2567 44.3473 28.93C43.8807 28.5967 43.2407 28.43 42.4273 28.43C42.074 28.43 41.674 28.47 41.2273 28.55C40.7807 28.63 40.284 28.7667 39.7373 28.96L39.3773 27.94C40.0107 27.7067 40.584 27.5433 41.0973 27.45C41.6173 27.3567 42.1207 27.31 42.6073 27.31C43.8407 27.31 44.7707 27.6133 45.3973 28.22C46.0307 28.82 46.3473 29.6167 46.3473 30.61V35.93ZM42.1773 37.21C42.7507 37.21 43.2873 37.07 43.7873 36.79C44.2873 36.51 44.7107 36.12 45.0573 35.62V32.62H43.3173C42.0707 32.62 41.2007 32.84 40.7073 33.28C40.214 33.7133 39.9673 34.29 39.9673 35.01C39.9673 35.7367 40.1473 36.2867 40.5073 36.66C40.8673 37.0267 41.424 37.21 42.1773 37.21ZM57.5895 23.08L58.8295 23.25V38H57.7495L57.5895 36.55C57.1695 37.15 56.6995 37.5767 56.1795 37.83C55.6662 38.0767 55.1362 38.2 54.5895 38.2C53.6629 38.2 52.8995 37.9733 52.2995 37.52C51.7062 37.06 51.2662 36.4233 50.9795 35.61C50.6929 34.79 50.5495 33.8467 50.5495 32.78C50.5495 31.7333 50.7095 30.8 51.0295 29.98C51.3562 29.1533 51.8229 28.5033 52.4295 28.03C53.0429 27.55 53.7829 27.31 54.6495 27.31C55.2895 27.31 55.8495 27.4233 56.3295 27.65C56.8095 27.87 57.2295 28.1967 57.5895 28.63V23.08ZM54.9595 28.38C53.9862 28.38 53.2395 28.75 52.7195 29.49C52.2062 30.2233 51.9495 31.3167 51.9495 32.77C51.9495 33.69 52.0529 34.4767 52.2595 35.13C52.4729 35.7767 52.7862 36.27 53.1995 36.61C53.6129 36.95 54.1295 37.12 54.7495 37.12C55.4162 37.12 55.9795 36.9333 56.4395 36.56C56.9062 36.1867 57.2895 35.7767 57.5895 35.33V29.87C57.2829 29.3967 56.8995 29.03 56.4395 28.77C55.9862 28.51 55.4929 28.38 54.9595 28.38ZM64.1017 33.25C64.1217 34.13 64.2784 34.8533 64.5717 35.42C64.8717 35.98 65.2651 36.3933 65.7517 36.66C66.2384 36.9267 66.7684 37.06 67.3417 37.06C67.8951 37.06 68.3851 36.98 68.8117 36.82C69.2451 36.66 69.6984 36.4167 70.1717 36.09L70.8217 37.02C70.3351 37.3933 69.7851 37.6833 69.1717 37.89C68.5651 38.0967 67.9717 38.2 67.3917 38.2C66.4251 38.2 65.5951 37.9733 64.9017 37.52C64.2151 37.0667 63.6884 36.4333 63.3217 35.62C62.9551 34.8 62.7717 33.8467 62.7717 32.76C62.7717 31.6933 62.9584 30.75 63.3317 29.93C63.7051 29.11 64.2217 28.47 64.8817 28.01C65.5484 27.5433 66.3217 27.31 67.2017 27.31C68.0551 27.31 68.7851 27.5167 69.3917 27.93C69.9984 28.3433 70.4617 28.93 70.7817 29.69C71.1084 30.4433 71.2717 31.3433 71.2717 32.39C71.2717 32.57 71.2684 32.7333 71.2617 32.88C71.2551 33.02 71.2484 33.1433 71.2417 33.25H64.1017ZM67.2317 28.47C66.3851 28.47 65.6717 28.77 65.0917 29.37C64.5184 29.97 64.1951 30.89 64.1217 32.13H70.0917C70.0651 30.8967 69.7884 29.98 69.2617 29.38C68.7351 28.7733 68.0584 28.47 67.2317 28.47ZM94.5847 31.06C94.5847 29.78 94.4414 28.7633 94.1547 28.01C93.8747 27.25 93.508 26.6833 93.0547 26.31C92.6014 25.9367 92.1114 25.69 91.5847 25.57C91.0647 25.45 90.5614 25.39 90.0747 25.39H88.1847V36.9H90.1047C90.6114 36.9 91.1247 36.82 91.6447 36.66C92.1714 36.5 92.6547 36.21 93.0947 35.79C93.5414 35.37 93.9014 34.78 94.1747 34.02C94.448 33.2533 94.5847 32.2667 94.5847 31.06ZM95.9747 31.06C95.9747 32.22 95.8514 33.2067 95.6047 34.02C95.358 34.8267 95.0247 35.4933 94.6047 36.02C94.1914 36.54 93.7214 36.9433 93.1947 37.23C92.668 37.5167 92.118 37.7167 91.5447 37.83C90.978 37.9433 90.428 38 89.8947 38H86.9147V24.26H89.6847C90.4647 24.26 91.228 24.35 91.9747 24.53C92.7214 24.7033 93.3947 25.0333 93.9947 25.52C94.6014 26 95.0814 26.6867 95.4347 27.58C95.7947 28.4667 95.9747 29.6267 95.9747 31.06ZM100.176 33.25C100.196 34.13 100.353 34.8533 100.646 35.42C100.946 35.98 101.339 36.3933 101.826 36.66C102.313 36.9267 102.843 37.06 103.416 37.06C103.969 37.06 104.459 36.98 104.886 36.82C105.319 36.66 105.773 36.4167 106.246 36.09L106.896 37.02C106.409 37.3933 105.859 37.6833 105.246 37.89C104.639 38.0967 104.046 38.2 103.466 38.2C102.499 38.2 101.669 37.9733 100.976 37.52C100.289 37.0667 99.7626 36.4333 99.3959 35.62C99.0293 34.8 98.8459 33.8467 98.8459 32.76C98.8459 31.6933 99.0326 30.75 99.4059 29.93C99.7793 29.11 100.296 28.47 100.956 28.01C101.623 27.5433 102.396 27.31 103.276 27.31C104.129 27.31 104.859 27.5167 105.466 27.93C106.073 28.3433 106.536 28.93 106.856 29.69C107.183 30.4433 107.346 31.3433 107.346 32.39C107.346 32.57 107.343 32.7333 107.336 32.88C107.329 33.02 107.323 33.1433 107.316 33.25H100.176ZM103.306 28.47C102.459 28.47 101.746 28.77 101.166 29.37C100.593 29.97 100.269 30.89 100.196 32.13H106.166C106.139 30.8967 105.863 29.98 105.336 29.38C104.809 28.7733 104.133 28.47 103.306 28.47ZM119.678 27.5L115.768 38H114.338L110.478 27.5H111.768L115.108 36.74L118.378 27.5H119.678ZM126.64 37.07C127.534 37.07 128.234 36.9 128.74 36.56C129.254 36.2133 129.51 35.76 129.51 35.2C129.51 34.8533 129.454 34.5533 129.34 34.3C129.234 34.04 128.997 33.81 128.63 33.61C128.27 33.4033 127.714 33.21 126.96 33.03C126.207 32.8433 125.554 32.6367 125 32.41C124.454 32.1833 124.03 31.8867 123.73 31.52C123.43 31.1533 123.28 30.6667 123.28 30.06C123.28 29.48 123.444 28.9867 123.77 28.58C124.104 28.1667 124.557 27.8533 125.13 27.64C125.71 27.42 126.364 27.31 127.09 27.31C127.91 27.31 128.624 27.42 129.23 27.64C129.844 27.86 130.357 28.1267 130.77 28.44L130.19 29.36C129.804 29.0867 129.374 28.86 128.9 28.68C128.427 28.5 127.827 28.41 127.1 28.41C126.174 28.41 125.524 28.5567 125.15 28.85C124.777 29.1433 124.59 29.5133 124.59 29.96C124.59 30.3067 124.68 30.5933 124.86 30.82C125.047 31.04 125.35 31.2367 125.77 31.41C126.19 31.5767 126.757 31.7567 127.47 31.95C128.157 32.13 128.757 32.3467 129.27 32.6C129.784 32.8533 130.184 33.1833 130.47 33.59C130.757 33.9967 130.9 34.5233 130.9 35.17C130.9 35.91 130.69 36.5033 130.27 36.95C129.857 37.39 129.324 37.71 128.67 37.91C128.017 38.1033 127.337 38.2 126.63 38.2C125.704 38.2 124.92 38.0633 124.28 37.79C123.647 37.5167 123.12 37.1967 122.7 36.83L123.47 35.92C123.884 36.2667 124.36 36.5467 124.9 36.76C125.44 36.9667 126.02 37.07 126.64 37.07Z" fill="#6D6C6C"/>
<rect x="1" y="0.5" width="156" height="61" stroke="#6D6C6C"/>
</svg>
