<svg width="29" height="28" viewBox="0 0 29 28" fill="none" xmlns="http://www.w3.org/2000/svg">
<path d="M0.190052 12.9903C0.190052 14.7914 0.831378 16.347 2.10038 17.6433C3.36939 18.9532 4.9113 19.6355 6.71247 19.6901C6.87621 19.6901 6.95808 19.6082 6.95808 19.4581V17.6433C6.95808 17.4795 6.87621 17.3977 6.71247 17.3977C5.56627 17.3431 4.57017 16.8791 3.75146 16.0058C2.93274 15.1326 2.50974 14.1365 2.50974 12.9766C2.50974 11.8304 2.89181 10.8343 3.66958 9.9883C4.44736 9.1423 5.38888 8.66472 6.53508 8.5692L7.25828 8.47368C7.42202 8.47368 7.51754 8.39181 7.51754 8.22807L7.61305 7.54581C7.74951 6.05848 8.36354 4.80312 9.46881 3.79337C10.5741 2.78363 11.8704 2.27875 13.3713 2.27875C14.845 2.27875 16.1413 2.78363 17.2466 3.77973C18.3518 4.77583 18.9932 6.0039 19.1569 7.47758L19.2524 8.26901C19.2524 8.43275 19.3343 8.51462 19.5117 8.51462H21.6949C22.923 8.51462 23.9737 8.95127 24.8606 9.83821C25.7339 10.7115 26.1842 11.7622 26.1842 12.9766C26.1842 14.1228 25.7748 15.1326 24.9561 16.0058C24.1374 16.8655 23.1413 17.3294 21.9815 17.3977C21.8041 17.3977 21.7086 17.4795 21.7086 17.6433V19.4581C21.7086 19.6082 21.8041 19.6901 21.9815 19.6901C23.7963 19.6355 25.3382 18.9532 26.5936 17.6433C27.8489 16.3333 28.4766 14.7914 28.4766 12.9766C28.4766 11.7622 28.1764 10.6296 27.5624 9.59259C26.962 8.55556 26.1296 7.73684 25.0926 7.13645C24.0556 6.53606 22.923 6.23587 21.7086 6.23587H21.2856C20.8353 4.40741 19.8801 2.92008 18.4064 1.74659C16.9464 0.586745 15.268 0 13.385 0C11.461 0 9.75535 0.60039 8.26803 1.78752C6.7807 2.97466 5.82553 4.50292 5.40253 6.35868C3.86062 6.75439 2.6189 7.55945 1.65009 8.77388C0.68128 9.9883 0.190052 11.4074 0.190052 12.9903ZM7.55847 22.5692C7.55847 22.8012 7.6267 23.0331 7.7768 23.2651C7.92689 23.4971 8.14522 23.6472 8.41812 23.7427C8.73196 23.8382 9.01851 23.8246 9.29142 23.6881C9.55068 23.5653 9.74171 23.306 9.82358 22.924L10.0146 22.0916C10.0828 21.7778 10.0419 21.4912 9.89181 21.232C9.74171 20.9727 9.50974 20.7817 9.18226 20.6862C8.88206 20.5906 8.58187 20.6316 8.30896 20.7953C8.03606 20.9591 7.84502 21.2047 7.76315 21.5185L7.57212 22.3236C7.57212 22.3645 7.55847 22.4464 7.55847 22.5692ZM8.59551 18.6121C8.59551 18.8986 8.70467 19.1579 8.93664 19.3899C9.15497 19.6218 9.40058 19.731 9.70077 19.731C10.0283 19.731 10.3012 19.6218 10.5195 19.4035C10.7378 19.1852 10.847 18.9259 10.847 18.5984C10.847 18.2846 10.7378 18.0117 10.5195 17.7934C10.3012 17.575 10.0283 17.4659 9.70077 17.4659C9.38693 17.4659 9.12767 17.575 8.90935 17.7797C8.70467 18.0253 8.59551 18.2982 8.59551 18.6121ZM9.42787 15.5146C9.41422 15.7329 9.46881 15.9376 9.6189 16.1287C9.75536 16.3333 9.97368 16.4698 10.2739 16.5653C10.5604 16.6472 10.8333 16.6199 11.1199 16.4698C11.4064 16.3197 11.5838 16.0877 11.6793 15.7739L12.0614 14.5458C12.1569 14.2183 12.1296 13.9181 11.9659 13.6589C11.8021 13.3996 11.5565 13.2222 11.229 13.1267C10.9288 13.0312 10.6423 13.0585 10.3694 13.2222C10.0965 13.3723 9.90545 13.6043 9.80994 13.9045L9.48245 15.1598C9.48245 15.1871 9.4688 15.2417 9.45516 15.3236C9.44151 15.3918 9.42787 15.46 9.42787 15.5146ZM11.0244 26.8265C11.0244 27.0721 11.0926 27.2904 11.229 27.5088C11.3655 27.7271 11.5838 27.8772 11.884 27.9591C11.9932 27.9864 12.116 28 12.2251 28C12.8119 28 13.1667 27.7271 13.3031 27.1676L13.4941 26.3626C13.576 26.0078 13.5351 25.7076 13.385 25.4347C13.2212 25.1618 12.9893 24.998 12.6754 24.9298C12.3889 24.8343 12.1023 24.8616 11.8158 25.0253C11.5292 25.1891 11.3518 25.4211 11.2563 25.7212L11.0653 26.5263C11.038 26.6491 11.0244 26.7446 11.0244 26.8265ZM12.075 22.8694C12.075 23.1696 12.1842 23.4289 12.4162 23.6608C12.6345 23.8791 12.8938 23.9883 13.194 23.9883C13.5214 23.9883 13.7807 23.8791 13.999 23.6745C14.2173 23.4561 14.3129 23.1969 14.3129 22.8694C14.3129 22.5556 14.2037 22.2963 13.999 22.078C13.7807 21.8597 13.5214 21.7641 13.194 21.7641C12.8665 21.7641 12.6072 21.8733 12.3889 22.078C12.1706 22.2827 12.075 22.5556 12.075 22.8694ZM12.9347 19.7719C12.921 19.9766 12.9756 20.1949 13.1121 20.4133C13.2485 20.6316 13.4532 20.768 13.7261 20.8226C14.04 20.9045 14.3265 20.8772 14.5994 20.7407C14.8723 20.6043 15.0497 20.345 15.1589 19.9766L15.5273 18.7485C15.6228 18.4483 15.5955 18.1618 15.4318 17.8889C15.268 17.616 15.0361 17.4386 14.7086 17.3431C14.4084 17.2476 14.1218 17.2885 13.8353 17.4522C13.5487 17.616 13.3713 17.8616 13.2758 18.1754L12.962 19.4035C12.9483 19.5127 12.9347 19.6355 12.9347 19.7719ZM16.7008 22.7057C16.7008 22.924 16.769 23.1423 16.9055 23.3606C17.0419 23.5789 17.2602 23.729 17.5331 23.8109C17.5741 23.8109 17.6423 23.8246 17.7242 23.8382C17.806 23.8519 17.8606 23.8655 17.9152 23.8655C18.4747 23.8655 18.8158 23.5653 18.9522 22.9649L19.1433 22.1462C19.2388 21.8596 19.2115 21.5731 19.0478 21.2866C18.8977 21 18.6657 20.8226 18.3518 20.7271C18.0107 20.6452 17.6969 20.6725 17.424 20.8363C17.1511 21 16.96 21.232 16.8645 21.5595L16.7417 22.3645C16.7417 22.3918 16.7281 22.46 16.7144 22.5283C16.7008 22.5965 16.7008 22.6511 16.7008 22.7057ZM17.7105 18.6667C17.7105 18.9669 17.8197 19.2398 18.0517 19.4444C18.2563 19.6628 18.5156 19.7719 18.8294 19.7719C19.1569 19.7719 19.4162 19.6628 19.6345 19.4581C19.8528 19.2534 19.9483 18.9805 19.9483 18.6667C19.9483 18.3392 19.8392 18.0799 19.6345 17.8616C19.4298 17.6433 19.1569 17.5478 18.8294 17.5478C18.5019 17.5478 18.2427 17.6569 18.0244 17.8616C17.8197 18.0799 17.7105 18.3392 17.7105 18.6667ZM18.5429 15.5146C18.5429 15.7466 18.6111 15.9649 18.7612 16.1696C18.9113 16.3743 19.1296 16.5244 19.4298 16.6062C19.4571 16.6062 19.5117 16.6199 19.5936 16.6335C19.6754 16.6472 19.7437 16.6608 19.7846 16.6608C19.921 16.6608 20.0848 16.6199 20.2758 16.538C20.5624 16.3879 20.7534 16.1423 20.8353 15.8285L21.1628 14.6004C21.2446 14.2865 21.2173 14 21.0536 13.7407C20.9035 13.4678 20.6715 13.2904 20.3577 13.1949C20.0439 13.0994 19.7573 13.1267 19.4844 13.2768C19.2251 13.4269 19.0341 13.6452 18.9522 13.9727L18.5702 15.2144C18.5702 15.2417 18.5565 15.2963 18.5429 15.3782V15.5146Z" fill="white"/>
</svg>
