<svg width="37" height="28" viewBox="0 0 37 28" fill="none" xmlns="http://www.w3.org/2000/svg">
<path d="M0.383072 18.2836C0.383072 17.9104 0.532326 17.5672 0.830833 17.2537C1.15919 16.9701 1.5174 16.8209 1.87561 16.8209H5.35322C5.75621 16.8209 6.08456 16.9701 6.35322 17.2537C6.62188 17.5373 6.75621 17.8955 6.75621 18.2836C6.75621 18.7164 6.62188 19.0746 6.35322 19.3582C6.08456 19.6418 5.74128 19.791 5.35322 19.791H1.87561C1.47262 19.791 1.12934 19.6418 0.830833 19.3433C0.532326 19.0299 0.383072 18.6716 0.383072 18.2836ZM5.35322 6.37313C5.35322 5.97015 5.48755 5.62687 5.74128 5.35821C6.08456 5.0597 6.42785 4.91045 6.80098 4.91045C7.18904 4.91045 7.53233 5.0597 7.81591 5.34328L10.2637 7.80597C10.5473 8.13433 10.6816 8.47761 10.6816 8.83582C10.6816 9.25373 10.5473 9.61194 10.2786 9.8806C10.0099 10.1493 9.68158 10.2985 9.29352 10.2985C8.93531 10.2985 8.5771 10.1493 8.24874 9.86567L5.74128 7.46269C5.48755 7.14925 5.35322 6.77612 5.35322 6.37313ZM8.3383 26.5224C8.3383 26.1045 8.48755 25.7612 8.77113 25.5075C9.03979 25.2537 9.36815 25.1194 9.78606 25.1194H13.7114L18.3532 20.7612C18.5025 20.6418 18.6667 20.6418 18.8607 20.7612L23.5771 25.1194H27.7114C28.1144 25.1194 28.4577 25.2537 28.7413 25.5373C29.0249 25.806 29.1741 26.1493 29.1741 26.5373C29.1741 26.9403 29.0249 27.2836 28.7413 27.5672C28.4577 27.8507 28.1144 28 27.7114 28H22.6667C22.5174 28 22.3681 27.9701 22.2338 27.8955L18.6368 24.5075L15.0696 27.8955C14.9502 27.9701 14.8159 28 14.6517 28H9.78606C9.38307 28 9.03979 27.8507 8.75621 27.5672C8.47262 27.2687 8.3383 26.9254 8.3383 26.5224ZM9.71143 18.2836C9.71143 19.7313 10.0249 21.0448 10.6368 22.2239C10.6667 22.403 10.801 22.4925 11.0099 22.4925H13.8159C13.9204 22.4925 13.995 22.4478 14.0398 22.3731C14.0846 22.2836 14.0696 22.194 14.0099 22.0896C13.0547 20.9403 12.5771 19.6716 12.5771 18.2836C12.5771 16.6119 13.1741 15.1791 14.3681 14C15.5622 12.8209 16.995 12.2388 18.6816 12.2388C20.3532 12.2388 21.7711 12.8209 22.9502 14C24.1293 15.1791 24.7264 16.597 24.7264 18.2836C24.7264 19.6866 24.2487 20.9552 23.3084 22.0896C23.2487 22.194 23.2338 22.2836 23.2637 22.3731C23.2935 22.4627 23.3681 22.4925 23.4875 22.4925H26.3234C26.5174 22.4925 26.6368 22.403 26.6667 22.2239C27.3234 21.0746 27.6219 19.7612 27.6219 18.2836C27.6219 17.0746 27.3831 15.9104 26.9055 14.8209C26.4278 13.7164 25.7861 12.7761 24.995 11.9701C24.204 11.1791 23.2487 10.5373 22.1443 10.0597C21.0398 9.58209 19.8905 9.35821 18.6816 9.35821C17.4726 9.35821 16.3084 9.59702 15.204 10.0597C14.0995 10.5373 13.1443 11.1642 12.3383 11.9701C11.5323 12.7612 10.8905 13.7164 10.4129 14.8209C9.95024 15.9104 9.71143 17.0597 9.71143 18.2836ZM17.2189 4.91045V1.47761C17.2189 1.04478 17.3532 0.701493 17.6368 0.417911C17.9204 0.134329 18.2786 0 18.6965 0C19.1144 0 19.4577 0.134329 19.7413 0.417911C20.0249 0.701493 20.1592 1.07463 20.1592 1.49254V4.92537C20.1592 5.35821 20.0249 5.70149 19.7413 5.98507C19.4726 6.25373 19.1144 6.40298 18.6965 6.40298C18.2637 6.40298 17.9204 6.26866 17.6368 5.98507C17.3532 5.70149 17.2189 5.34328 17.2189 4.91045ZM26.6965 8.85075C26.6965 8.47761 26.8308 8.13433 27.0995 7.8209L29.5174 5.35821C29.801 5.07463 30.1592 4.92537 30.5622 4.92537C30.9652 4.92537 31.3234 5.07463 31.592 5.35821C31.8756 5.64179 32.0099 5.98507 32.0099 6.38806C32.0099 6.82089 31.8756 7.1791 31.6219 7.47761L29.1144 9.8806C28.801 10.1642 28.4428 10.3134 28.0696 10.3134C27.6667 10.3134 27.3383 10.1791 27.0846 9.89552C26.8308 9.61194 26.6965 9.26866 26.6965 8.85075ZM30.592 18.2836C30.592 17.8806 30.7264 17.5373 30.995 17.2537C31.2637 16.9701 31.592 16.8209 31.9801 16.8209H35.4875C35.8905 16.8209 36.2338 16.9701 36.5174 17.2537C36.801 17.5373 36.9502 17.8955 36.9502 18.2836C36.9502 18.7015 36.801 19.0448 36.5174 19.3433C36.2338 19.6418 35.8905 19.791 35.4875 19.791H31.9801C31.5771 19.791 31.2487 19.6418 30.9801 19.3582C30.7264 19.0597 30.592 18.7015 30.592 18.2836Z" fill="white"/>
</svg>
