<svg width="14" height="28" viewBox="0 0 14 28" fill="none" xmlns="http://www.w3.org/2000/svg">
<path d="M0.548218 21.5609C0.548218 20.4835 0.801726 19.4821 1.29607 18.5441C1.79041 17.6062 2.48756 16.833 3.38751 16.2119V3.63785C3.38751 2.62381 3.72975 1.76188 4.4269 1.06474C5.12404 0.367587 5.98597 0 7.00001 0C8.02672 0 8.88864 0.354912 9.58579 1.05206C10.2829 1.76188 10.6379 2.61114 10.6379 3.62517V16.1992C11.5378 16.8203 12.2223 17.6062 12.7166 18.5315C13.211 19.4568 13.4518 20.4708 13.4518 21.5482C13.4518 22.7144 13.1603 23.8044 12.5899 24.7931C12.0195 25.7818 11.2336 26.5677 10.2449 27.1381C9.25623 27.7085 8.17882 28 7.00001 28C5.83387 28 4.75646 27.7085 3.76777 27.1381C2.77909 26.5677 1.99322 25.7818 1.41015 24.7931C0.827077 23.8044 0.548218 22.727 0.548218 21.5609ZM2.77909 21.5609C2.77909 22.7397 3.19738 23.7537 4.02128 24.5903C4.84518 25.4269 5.84654 25.8452 7.01268 25.8452C8.1915 25.8452 9.20553 25.4269 10.0548 24.5776C10.904 23.7284 11.335 22.727 11.335 21.5736C11.335 20.7877 11.1322 20.0525 10.7266 19.3807C10.321 18.7089 9.76325 18.1892 9.05342 17.8216L8.69851 17.6442C8.57176 17.5935 8.50838 17.4667 8.50838 17.2766V3.63785C8.50838 3.23223 8.36895 2.89 8.07742 2.61114C7.78588 2.34495 7.43097 2.20552 7.00001 2.20552C6.59439 2.20552 6.23948 2.34495 5.94795 2.61114C5.65641 2.87732 5.51698 3.21956 5.51698 3.63785V17.2512C5.51698 17.4414 5.4536 17.5681 5.33953 17.6188L4.99729 17.7963C4.30014 18.1639 3.7551 18.6836 3.36216 19.3554C2.96922 20.0272 2.77909 20.7497 2.77909 21.5609ZM3.76777 21.5609C3.76777 22.4608 4.07198 23.234 4.69308 23.8678C5.31418 24.5016 6.04935 24.8185 6.92395 24.8185C7.79856 24.8185 8.54641 24.5016 9.19285 23.8678C9.8393 23.234 10.1562 22.4608 10.1562 21.5736C10.1562 20.775 9.87733 20.0652 9.33228 19.4568C8.78724 18.8483 8.11544 18.4808 7.32957 18.3794V9.05025C7.32957 8.9742 7.29154 8.88547 7.20281 8.80942C7.11408 8.72069 7.02536 8.68266 6.92395 8.68266C6.80987 8.68266 6.72115 8.72069 6.65777 8.78406C6.59439 8.86012 6.55637 8.93617 6.55637 9.05025V18.354C5.78317 18.4681 5.12404 18.823 4.579 19.4314C4.03396 20.0525 3.76777 20.7497 3.76777 21.5609Z" fill="white"/>
</svg>
