<svg width="53" height="28" viewBox="0 0 53 28" fill="none" xmlns="http://www.w3.org/2000/svg">
<path d="M0.199997 17.6125C0.199997 18.1396 0.397644 18.6008 0.814899 18.9741C1.16627 19.3914 1.62745 19.589 2.19843 19.589H34.4588C35.0957 19.589 35.6227 19.8086 36.062 20.2478C36.5012 20.6871 36.7208 21.2361 36.7208 21.8729C36.7208 22.5098 36.5012 23.0369 36.062 23.4541C35.6227 23.8714 35.0957 24.091 34.4369 24.091C33.8 24.091 33.251 23.8714 32.8337 23.4541C32.4823 23.0588 32.0431 22.8831 31.5161 22.8831C30.9671 22.8831 30.5059 23.0808 30.1106 23.4541C29.7153 23.8274 29.5176 24.2886 29.5176 24.7937C29.5176 25.3427 29.7153 25.8039 30.1325 26.1773C31.3623 27.3851 32.8118 28 34.4369 28C36.1498 28 37.6212 27.4071 38.851 26.2212C40.0808 25.0353 40.6737 23.6078 40.6737 21.8949C40.6737 20.182 40.0588 18.7325 38.829 17.5027C37.5992 16.2729 36.1278 15.658 34.4369 15.658H2.19843C1.64941 15.658 1.18823 15.8557 0.792938 16.229C0.397644 16.6024 0.199997 17.0635 0.199997 17.6125ZM0.199997 10.4094C0.199997 10.9145 0.397644 11.3537 0.814899 11.749C1.18823 12.1443 1.64941 12.32 2.19843 12.32H46.2078C47.9208 12.32 49.3921 11.7271 50.6219 10.5192C51.8518 9.33333 52.4667 7.88392 52.4667 6.19294C52.4667 4.50196 51.8518 3.03059 50.6219 1.82274C49.3921 0.614902 47.9208 0 46.2078 0C44.5168 0 43.0894 0.592942 41.9255 1.75686C41.5302 2.10824 41.3325 2.59137 41.3325 3.22824C41.3325 3.79922 41.5302 4.26039 41.9035 4.61177C42.2769 4.96314 42.738 5.13882 43.287 5.13882C43.8141 5.13882 44.2753 4.96314 44.6706 4.61177C45.0878 4.15059 45.5929 3.93098 46.2078 3.93098C46.8447 3.93098 47.3718 4.15059 47.811 4.5898C48.2502 5.02902 48.4698 5.55608 48.4698 6.19294C48.4698 6.8298 48.2502 7.35686 47.811 7.77412C47.3718 8.19137 46.8447 8.41098 46.2078 8.41098H2.19843C1.64941 8.41098 1.18823 8.60863 0.792938 8.98196C0.397644 9.39922 0.199997 9.86039 0.199997 10.4094Z" fill="white"/>
</svg>
